<svg xmlns="http://www.w3.org/2000/svg" viewBox="0 0 50.55 50.65"><defs><style>.cls-1,.cls-2{fill:none;stroke:#db012d;stroke-miterlimit:10;}.cls-1{stroke-width:1.6px;}.cls-3{fill:#db012d;}</style></defs><title>HSF_moto-freios</title><g id="Camada_2" data-name="Camada 2"><g id="Camada_1-2" data-name="Camada 1"><path class="cls-1" d="M5.75,28.47A22,22,0,1,0,28.44,5.86"/><circle class="cls-1" cx="27.75" cy="27.85" r="9.46"/><circle class="cls-2" cx="27.75" cy="27.85" r="5.35"/><circle class="cls-3" cx="34.46" cy="13.66" r="1.22"/><circle class="cls-3" cx="27.21" cy="12.29" r="1.22"/><circle class="cls-3" cx="40.14" cy="18.67" r="1.22"/><circle class="cls-3" cx="43.11" cy="25.41" r="1.22"/><circle class="cls-3" cx="42.37" cy="32.81" r="1.22"/><circle class="cls-3" cx="38.33" cy="39.07" r="1.22"/><circle class="cls-3" cx="31.88" cy="42.77" r="1.22"/><circle class="cls-3" cx="24.48" cy="42.96" r="1.22"/><circle class="cls-3" cx="17.84" cy="39.71" r="1.22"/><circle class="cls-3" cx="13.4" cy="33.78" r="1.22"/><circle class="cls-3" cx="12.27" cy="26.4" r="1.22"/><path class="cls-1" d="M4.53,8H22.47a8.35,8.35,0,0,1,8.35,8.35v0a2.7,2.7,0,0,1-2.7,2.7H-1.12a2.7,2.7,0,0,1-2.7-2.7v0A8.35,8.35,0,0,1,4.53,8Z" transform="translate(-5.59 13.5) rotate(-45)"/><circle class="cls-2" cx="18.93" cy="8.06" r="1.74"/><circle class="cls-2" cx="8.11" cy="18.88" r="1.74"/></g></g></svg>