<svg xmlns="http://www.w3.org/2000/svg" viewBox="0 0 65.51 43.36"><defs><style>.cls-1,.cls-2{fill:none;stroke:#db012d;stroke-linecap:round;stroke-linejoin:round;}.cls-1{stroke-width:1.6px;}</style></defs><title>HSF_moto-transmissao</title><g id="Camada_2" data-name="Camada 2"><g id="Camada_1-2" data-name="Camada 1"><path class="cls-1" d="M59.75,19.52a4.77,4.77,0,0,1-.67.06,3.86,3.86,0,0,1-2.17-7A15.79,15.79,0,0,0,53.6,9.17a3.85,3.85,0,0,1-7.16-2,3.89,3.89,0,0,1,.16-1,14.88,14.88,0,0,0-4.92,0,4,4,0,0,1,.1.86,3.85,3.85,0,0,1-7.13,2,16,16,0,0,0-3.42,3.41,3.85,3.85,0,0,1-2.91,7,15.62,15.62,0,0,0-.2,2.39,16,16,0,0,0,.23,2.61,4.14,4.14,0,0,1,.87-.1,3.85,3.85,0,0,1,2.13,7.07,16.27,16.27,0,0,0,3.57,3.46,3.85,3.85,0,0,1,7.15,2,4.53,4.53,0,0,1-.07.74,17,17,0,0,0,2,.14,16.82,16.82,0,0,0,2.48-.21,3.71,3.71,0,0,1-.07-.67,3.85,3.85,0,0,1,7-2.24,15.84,15.84,0,0,0,3.37-3.32,3.86,3.86,0,0,1,2.28-7,4.48,4.48,0,0,1,.64.06A15.54,15.54,0,0,0,60,21.86,15,15,0,0,0,59.75,19.52Z"/><circle class="cls-2" cx="44.03" cy="21.86" r="6.53"/><circle class="cls-2" cx="44.03" cy="21.86" r="3.25"/><path class="cls-2" d="M21.84,22.26a1.86,1.86,0,0,1-.33,0A1.9,1.9,0,0,1,20,20a1.87,1.87,0,0,1,1.12-1.37,7.84,7.84,0,0,0-1.27-2,1.89,1.89,0,0,1-3.09-2.13,8.15,8.15,0,0,0-1.22-.35A7.65,7.65,0,0,0,14.4,14a1.49,1.49,0,0,1,0,.42,1.9,1.9,0,0,1-3.65.29,8,8,0,0,0-2,1.32,1.88,1.88,0,0,1,.57,1.77,1.86,1.86,0,0,1-2.66,1.34,7.44,7.44,0,0,0-.33,1.14,7.07,7.07,0,0,0-.14,1.29,1.59,1.59,0,0,1,.43,0A1.9,1.9,0,0,1,7,25.26a7.74,7.74,0,0,0,1.39,2,1.89,1.89,0,0,1,1.77-.59,1.91,1.91,0,0,1,1.49,2.25,1.93,1.93,0,0,1-.11.34,6.66,6.66,0,0,0,1,.27,7.36,7.36,0,0,0,1.22.14,1.84,1.84,0,0,1,0-.33,1.9,1.9,0,0,1,3.6-.4,7.92,7.92,0,0,0,2-1.28A1.9,1.9,0,0,1,21,24.54a1.32,1.32,0,0,1,.3.09,7.15,7.15,0,0,0,.36-1.22A7.68,7.68,0,0,0,21.84,22.26Z"/><circle class="cls-2" cx="14.01" cy="21.86" r="2.9"/><path class="cls-1" d="M9.55,10.79C6.32,12.08.8,16.3.8,21.62c0,5.09,5.06,9.28,8.11,10.68,6.93,3.15,21.39,7.48,28.71,9.33a27.88,27.88,0,0,0,6.21.93A20.88,20.88,0,0,0,43.83.8a27.28,27.28,0,0,0-6.21.94C30.47,3.56,15.85,8.28,9.55,10.79Z"/></g></g></svg>