<svg xmlns="http://www.w3.org/2000/svg" viewBox="0 0 59.9 52.1"><defs><style>.cls-1,.cls-2,.cls-3,.cls-4{fill:none;stroke:#db012d;}.cls-1,.cls-4{stroke-miterlimit:10;}.cls-1,.cls-2{stroke-width:1.6px;}.cls-2,.cls-3{stroke-linejoin:round;}.cls-5{fill:#db012d;}</style></defs><title>HSF_moto-motor</title><g id="Camada_2" data-name="Camada 2"><g id="Camada_1-2" data-name="Camada 1"><circle class="cls-1" cx="30.13" cy="6.35" r="4.61"/><rect class="cls-2" x="35.49" y="8.28" width="17.08" height="16.37" transform="translate(16.07 -21.33) rotate(33)"/><rect class="cls-2" x="39.46" y="5.98" width="20.2" height="3.93" transform="translate(12.32 -25.71) rotate(33)"/><rect class="cls-2" x="29.86" y="23.35" width="18.32" height="3.93" transform="translate(20.08 -17.17) rotate(33)"/><line class="cls-3" x1="45.79" y1="7.84" x2="36.87" y2="21.57"/><line class="cls-3" x1="50.96" y1="11.2" x2="42.04" y2="24.93"/><rect class="cls-2" x="7.33" y="8.28" width="17.08" height="16.37" transform="matrix(-0.84, 0.54, -0.54, -0.84, 38.14, 21.62)"/><rect class="cls-2" x="0.24" y="5.98" width="20.2" height="3.93" transform="translate(23.34 8.98) rotate(147)"/><rect class="cls-2" x="11.72" y="23.35" width="18.32" height="3.93" transform="translate(52.18 35.17) rotate(147)"/><line class="cls-3" x1="14.11" y1="7.84" x2="23.03" y2="21.57"/><line class="cls-3" x1="8.94" y1="11.2" x2="17.86" y2="24.93"/><polyline class="cls-1" points="39.14 38.58 45.71 38.58 45.71 31.95"/><polyline class="cls-1" points="14.27 31.95 14.27 38.58 21.12 38.58"/><polyline class="cls-1" points="21.12 38.58 17.77 38.58 17.77 46.81 22.26 51.3 30.13 51.3 30.13 51.3 38 51.3 42.49 46.81 42.49 38.58 39.14 38.58"/><line class="cls-1" x1="34.73" y1="6.7" x2="38.62" y2="9.25"/><line class="cls-1" x1="32.68" y1="10.2" x2="36.21" y2="12.51"/><line class="cls-1" x1="25.45" y1="6.7" x2="21.43" y2="9.33"/><line class="cls-1" x1="27.49" y1="10.2" x2="23.64" y2="12.73"/><circle class="cls-4" cx="30.13" cy="38.56" r="9.01"/><circle class="cls-4" cx="30.13" cy="38.56" r="1.95"/><circle class="cls-5" cx="30.13" cy="33.16" r="0.9"/><circle class="cls-5" cx="30.13" cy="43.97" r="0.9"/><circle class="cls-5" cx="35.49" cy="38.56" r="0.9"/><circle class="cls-5" cx="24.77" cy="38.56" r="0.9"/></g></g></svg>