<svg xmlns="http://www.w3.org/2000/svg" viewBox="0 0 50.06 48.49"><defs><style>.cls-1{fill:none;stroke:#db012d;stroke-linecap:round;stroke-linejoin:round;stroke-width:1.6px;}</style></defs><title>HSF_moto-partida</title><g id="Camada_2" data-name="Camada 2"><g id="Camada_1-2" data-name="Camada 1"><path class="cls-1" d="M1.21,14.54,14.54,1.21a1.4,1.4,0,0,1,1.95,0l9.87,9.22a1.75,1.75,0,0,1,.18,2.38l-2.2,2.75L49.26,40.45v5.63l-1.61,1.61H40.42l-3.31-4L34.4,41.87l-3.67-5.15L27.8,35.49l-2.26-3.76-3.82-1.31-2.51-3.23L16.3,24.37l-2.79,2.24a1.77,1.77,0,0,1-2.34-.13l-10-10A1.39,1.39,0,0,1,1.21,14.54Z"/><path class="cls-1" d="M8.2,14l6.55-6.55a1.06,1.06,0,0,1,1.49,0l2.22,2.22a1.06,1.06,0,0,1,0,1.5L11.8,17.6a1.05,1.05,0,0,1-1.47,0L8.2,15.47A1.06,1.06,0,0,1,8.2,14Z"/><line class="cls-1" x1="23" y1="20.75" x2="45.81" y2="43.57"/></g></g></svg>