<svg xmlns="http://www.w3.org/2000/svg" viewBox="0 0 51.48 51.48"><defs><style>.cls-1,.cls-2{fill:none;stroke:#db012d;}.cls-1{stroke-linejoin:round;stroke-width:1.6px;}.cls-2{stroke-miterlimit:10;}</style></defs><title>HSF_moto-cilindrada</title><g id="Camada_2" data-name="Camada 2"><g id="Camada_1-2" data-name="Camada 1"><path class="cls-1" d="M18.31.8A64.36,64.36,0,0,0,8.36,8.36a51.13,51.13,0,0,0-7.56,10L15.31,32.82,32.82,15.31Z"/><line class="cls-2" x1="3.13" y1="20.64" x2="20.64" y2="3.13"/><line class="cls-2" x1="5.72" y1="23.23" x2="23.23" y2="5.72"/><line class="cls-2" x1="7.9" y1="25.41" x2="25.41" y2="7.9"/><circle class="cls-2" cx="20.59" cy="20.59" r="3.15"/><circle class="cls-2" cx="41.37" cy="41.37" r="3.97"/><path class="cls-1" d="M45.74,32.07l-3.25,3.25a6.25,6.25,0,0,0-3.47.36L25.73,22.39l-3.34,3.34L35.68,39a6.25,6.25,0,0,0-.36,3.47l-3.25,3.25L37,50.68l3.26-3.26a6.15,6.15,0,0,0,7.16-7.16L50.68,37Z"/><line class="cls-2" x1="34.53" y1="48.21" x2="38.57" y2="44.18"/><line class="cls-2" x1="44.18" y1="38.57" x2="48.21" y2="34.53"/></g></g></svg>